<svg id="Layer_1" data-name="Layer 1" xmlns="http://www.w3.org/2000/svg" viewBox="0 0 164.52 102.64"><defs><style>.cls-1{fill:#40e0d0;}.cls-2{fill:#40e0d0;}</style></defs><path class="cls-1" d="M287.54,86.7,260.09,97.32a1.57,1.57,0,0,0-.45,2.62l4.59,4.12a1.57,1.57,0,0,1,.24,2.06l-17.72,25.65,12.08,17.13L280.13,116a1.56,1.56,0,0,1,2.14-.48l4,2.44a1.57,1.57,0,0,0,2.4-1.27l1.05-28.51A1.57,1.57,0,0,0,287.54,86.7Z" transform="translate(-125.16 -83.36)"/><path class="cls-1" d="M189.05,186l32.73-48.75a2.19,2.19,0,0,1,3.58-.07l8.22,11.15a3.46,3.46,0,0,1,.13,3.94l-19.84,30.85a1.87,1.87,0,0,0,1.57,2.88h14.69a5.08,5.08,0,0,0,4.14-2.15l24.56-35-12.08-17.13h0L217.48,90.28a16.34,16.34,0,0,0-26.7,0l-65.24,92.48a2.06,2.06,0,0,0,1.68,3.25m19.7,0L200,108.11a2.9,2.9,0,0,1,4.7-.13l6.6,8.62a4.3,4.3,0,0,1,.16,5L168.37,186" transform="translate(-125.16 -83.36)"/><polygon class="cls-2" points="121.59 48.41 133.67 65.54 121.59 48.41 121.59 48.41"/></svg>